<?xml version="1.0" encoding="utf-8"?>
<svg version="1.1" id="Layer_1" xmlns="http://www.w3.org/2000/svg" xmlns:xlink="http://www.w3.org/1999/xlink" x="0px" y="0px"
	 viewBox="0 0 1000 800" enable-background="new 0 0 1000 800" xml:space="preserve">
<g>
	<g>
		<polygon fill="#EC008C" stroke="#21409A" stroke-width="2" stroke-miterlimit="10" points="228.7,134.4 217.6,115.1 228.7,95.8 
			251,95.8 262.1,115.1 251,134.4 		"/>
		<polygon fill="#049FDA" stroke="#21409A" stroke-width="2" stroke-miterlimit="10" points="295.6,95.8 284.5,76.5 295.6,57.2 
			317.9,57.2 329,76.5 317.9,95.8 		"/>
		<polygon fill="#7F3F98" stroke="#21409A" stroke-width="2" stroke-miterlimit="10" points="295.6,211.6 284.5,192.3 295.6,173 
			317.9,173 329,192.3 317.9,211.6 		"/>
		<polygon fill="#EC008C" stroke="#21409A" stroke-width="2" stroke-miterlimit="10" points="328.4,115.1 317.2,95.8 328.4,76.5 
			350.6,76.5 361.8,95.8 350.6,115.1 		"/>
		<polygon fill="#049FDA" stroke="#21409A" stroke-width="2" stroke-miterlimit="10" points="228.7,327.4 217.6,308.1 228.7,288.8 
			251,288.8 262.1,308.1 251,327.4 		"/>
		<polygon fill="#049FDA" stroke="#21409A" stroke-width="2" stroke-miterlimit="10" points="195.7,230.9 184.6,211.6 195.7,192.3 
			218,192.3 229.1,211.6 218,230.9 		"/>
		<polygon fill="#EC008C" stroke="#21409A" stroke-width="2" stroke-miterlimit="10" points="294.4,134.4 283.3,115.1 294.4,95.8 
			316.7,95.8 327.8,115.1 316.7,134.4 		"/>
		<polygon fill="#7F3F98" stroke="#21409A" stroke-width="2" stroke-miterlimit="10" points="261.7,115.1 250.6,95.8 261.7,76.5 
			284,76.5 295.1,95.8 284,115.1 		"/>
		<polygon fill="#EC008C" stroke="#21409A" stroke-width="2" stroke-miterlimit="10" points="195.7,308.1 184.6,288.8 195.7,269.5 
			218,269.5 229.1,288.8 218,308.1 		"/>
		<polygon fill="#2BB673" stroke="#21409A" stroke-width="2" stroke-miterlimit="10" points="228.7,211.6 217.6,192.3 228.7,173 
			251,173 262.1,192.3 251,211.6 		"/>
		<polygon fill="#2BB673" stroke="#21409A" stroke-width="2" stroke-miterlimit="10" points="162.6,250.2 151.4,230.9 162.6,211.6 
			184.9,211.6 196,230.9 184.9,250.2 		"/>
		<polygon fill="#7F3F98" stroke="#21409A" stroke-width="2" stroke-miterlimit="10" points="261.7,346.7 250.6,327.4 261.7,308.1 
			284,308.1 295.1,327.4 284,346.7 		"/>
		<polygon fill="#7F3F98" stroke="#21409A" stroke-width="2" stroke-miterlimit="10" points="128.5,153.7 117.4,134.4 128.5,115.1 
			150.8,115.1 161.9,134.4 150.8,153.7 		"/>
		<polygon fill="#EC008C" stroke="#21409A" stroke-width="2" stroke-miterlimit="10" points="327.8,192.3 316.7,173 327.8,153.7 
			350.1,153.7 361.3,173 350.1,192.3 		"/>
		<polygon fill="#7F3F98" stroke="#21409A" stroke-width="2" stroke-miterlimit="10" points="195.7,346.7 184.6,327.4 195.7,308.1 
			218,308.1 229.1,327.4 218,346.7 		"/>
		<polygon fill="#EC008C" stroke="#21409A" stroke-width="2" stroke-miterlimit="10" points="129.7,269.5 118.6,250.2 129.7,230.9 
			152,230.9 163.1,250.2 152,269.5 		"/>
		<polygon fill="#2BB673" stroke="#21409A" stroke-width="2" stroke-miterlimit="10" points="360.9,211.6 349.7,192.3 360.9,173 
			383.2,173 394.3,192.3 383.2,211.6 		"/>
		<polygon fill="#2BB673" stroke="#21409A" stroke-width="2" stroke-miterlimit="10" points="261.7,153.7 250.6,134.4 261.7,115.1 
			284,115.1 295.1,134.4 284,153.7 		"/>
		<polygon fill="#EC008C" stroke="#21409A" stroke-width="2" stroke-miterlimit="10" points="261.7,76.5 250.6,57.2 261.7,37.9 
			284,37.9 295.1,57.2 284,76.5 		"/>
		<polygon fill="#EC008C" stroke="#21409A" stroke-width="2" stroke-miterlimit="10" points="195.7,77.7 184.6,58.4 195.7,39.1 
			218,39.1 229.1,58.4 218,77.7 		"/>
		<polygon fill="#2BB673" stroke="#21409A" stroke-width="2" stroke-miterlimit="10" points="95,250.2 83.9,230.9 95,211.6 
			117.3,211.6 128.4,230.9 117.3,250.2 		"/>
		<polygon fill="#049FDA" stroke="#21409A" stroke-width="2" stroke-miterlimit="10" points="162.6,95.8 151.4,76.5 162.6,57.2 
			184.9,57.2 196,76.5 184.9,95.8 		"/>
		<polygon fill="#EC008C" stroke="#21409A" stroke-width="2" stroke-miterlimit="10" points="128.5,115.1 117.4,95.8 128.5,76.5 
			150.8,76.5 161.9,95.8 150.8,115.1 		"/>
		<polygon fill="#7F3F98" stroke="#21409A" stroke-width="2" stroke-miterlimit="10" points="95,287.6 83.9,268.3 95,249 117.3,249 
			128.4,268.3 117.3,287.6 		"/>
		<polygon fill="#049FDA" stroke="#21409A" stroke-width="2" stroke-miterlimit="10" points="294.4,287.6 283.3,268.3 294.4,249 
			316.7,249 327.8,268.3 316.7,287.6 		"/>
		<polygon fill="#049FDA" stroke="#21409A" stroke-width="2" stroke-miterlimit="10" points="162.6,288.8 151.4,269.5 162.6,250.2 
			184.9,250.2 196,269.5 184.9,288.8 		"/>
		<polygon fill="#7F3F98" stroke="#21409A" stroke-width="2" stroke-miterlimit="10" points="326.6,153.7 315.5,134.4 326.6,115.1 
			348.9,115.1 360.1,134.4 348.9,153.7 		"/>
		<polygon fill="#049FDA" stroke="#21409A" stroke-width="2" stroke-miterlimit="10" points="228.7,95.8 217.6,76.5 228.7,57.2 
			251,57.2 262.1,76.5 251,95.8 		"/>
		<polygon fill="#2BB673" stroke="#21409A" stroke-width="2" stroke-miterlimit="10" points="360.9,173 349.7,153.7 360.9,134.4 
			383.2,134.4 394.3,153.7 383.2,173 		"/>
		<polygon fill="#049FDA" stroke="#21409A" stroke-width="2" stroke-miterlimit="10" points="261.7,230.9 250.6,211.6 261.7,192.3 
			284,192.3 295.1,211.6 284,230.9 		"/>
		<polygon fill="#7F3F98" stroke="#21409A" stroke-width="2" stroke-miterlimit="10" points="327.2,308.1 316,288.8 327.2,269.5 
			349.4,269.5 360.6,288.8 349.4,308.1 		"/>
		<polygon fill="#7F3F98" stroke="#21409A" stroke-width="2" stroke-miterlimit="10" points="128.5,308.1 117.4,288.8 128.5,269.5 
			150.8,269.5 161.9,288.8 150.8,308.1 		"/>
		<polygon fill="#7F3F98" stroke="#21409A" stroke-width="2" stroke-miterlimit="10" points="195.7,269.5 184.6,250.2 195.7,230.9 
			218,230.9 229.1,250.2 218,269.5 		"/>
		<polygon fill="#7F3F98" stroke="#21409A" stroke-width="2" stroke-miterlimit="10" points="294.4,326.2 283.3,306.9 294.4,287.6 
			316.7,287.6 327.8,306.9 316.7,326.2 		"/>
		<polygon fill="#7F3F98" stroke="#21409A" stroke-width="2" stroke-miterlimit="10" points="162.6,327.4 151.4,308.1 162.6,288.8 
			184.9,288.8 196,308.1 184.9,327.4 		"/>
		<polygon fill="#7F3F98" stroke="#21409A" stroke-width="2" stroke-miterlimit="10" points="228.7,366 217.6,346.7 228.7,327.4 
			251,327.4 262.1,346.7 251,366 		"/>
		<polygon fill="#049FDA" stroke="#21409A" stroke-width="2" stroke-miterlimit="10" points="359.7,134.4 348.5,115.1 359.7,95.8 
			382,95.8 393.1,115.1 382,134.4 		"/>
		<polygon fill="#7F3F98" stroke="#21409A" stroke-width="2" stroke-miterlimit="10" points="360.9,288.8 349.7,269.5 360.9,250.2 
			383.2,250.2 394.3,269.5 383.2,288.8 		"/>
		<polygon fill="#EC008C" stroke="#21409A" stroke-width="2" stroke-miterlimit="10" points="128.5,192.3 117.4,173 128.5,153.7 
			150.8,153.7 161.9,173 150.8,192.3 		"/>
		<polygon fill="#7F3F98" stroke="#21409A" stroke-width="2" stroke-miterlimit="10" points="228.7,173 217.6,153.7 228.7,134.4 
			251,134.4 262.1,153.7 251,173 		"/>
		<polygon fill="#049FDA" stroke="#21409A" stroke-width="2" stroke-miterlimit="10" points="128.5,230.9 117.4,211.6 128.5,192.3 
			150.8,192.3 161.9,211.6 150.8,230.9 		"/>
		<polygon fill="#7F3F98" stroke="#21409A" stroke-width="2" stroke-miterlimit="10" points="162.6,211.6 151.4,192.3 162.6,173 
			184.9,173 196,192.3 184.9,211.6 		"/>
		<polygon fill="#EC008C" stroke="#21409A" stroke-width="2" stroke-miterlimit="10" points="195.7,192.3 184.6,173 195.7,153.7 
			218,153.7 229.1,173 218,192.3 		"/>
		<polygon fill="#EC008C" stroke="#21409A" stroke-width="2" stroke-miterlimit="10" points="228.7,250.2 217.6,230.9 228.7,211.6 
			251,211.6 262.1,230.9 251,250.2 		"/>
		<polygon fill="#7F3F98" stroke="#21409A" stroke-width="2" stroke-miterlimit="10" points="261.7,269.5 250.6,250.2 261.7,230.9 
			284,230.9 295.1,250.2 284,269.5 		"/>
		<polygon fill="#7F3F98" stroke="#21409A" stroke-width="2" stroke-miterlimit="10" points="195.7,116.3 184.6,97 195.7,77.7 
			218,77.7 229.1,97 218,116.3 		"/>
		<polygon fill="#EC008C" stroke="#21409A" stroke-width="2" stroke-miterlimit="10" points="261.7,192.3 250.6,173 261.7,153.7 
			284,153.7 295.1,173 284,192.3 		"/>
		<polygon fill="#2BB673" stroke="#21409A" stroke-width="2" stroke-miterlimit="10" points="95,173 83.9,153.7 95,134.4 
			117.3,134.4 128.4,153.7 117.3,173 		"/>
		<polygon fill="#049FDA" stroke="#21409A" stroke-width="2" stroke-miterlimit="10" points="162.6,173 151.4,153.7 162.6,134.4 
			184.9,134.4 196,153.7 184.9,173 		"/>
		<polygon fill="#2BB673" stroke="#21409A" stroke-width="2" stroke-miterlimit="10" points="195.7,154.9 184.6,135.6 195.7,116.3 
			218,116.3 229.1,135.6 218,154.9 		"/>
		<polygon fill="#EC008C" stroke="#21409A" stroke-width="2" stroke-miterlimit="10" points="261.7,308.1 250.6,288.8 261.7,269.5 
			284,269.5 295.1,288.8 284,308.1 		"/>
		<polygon fill="#049FDA" stroke="#21409A" stroke-width="2" stroke-miterlimit="10" points="327.8,230.9 316.7,211.6 327.8,192.3 
			350.1,192.3 361.3,211.6 350.1,230.9 		"/>
		<polygon fill="#2BB673" stroke="#21409A" stroke-width="2" stroke-miterlimit="10" points="360.9,250.2 349.7,230.9 360.9,211.6 
			383.2,211.6 394.3,230.9 383.2,250.2 		"/>
		<polygon fill="#2BB673" stroke="#21409A" stroke-width="2" stroke-miterlimit="10" points="228.7,288.8 217.6,269.5 228.7,250.2 
			251,250.2 262.1,269.5 251,288.8 		"/>
		<polygon fill="#049FDA" stroke="#21409A" stroke-width="2" stroke-miterlimit="10" points="294.4,173 283.3,153.7 294.4,134.4 
			316.7,134.4 327.8,153.7 316.7,173 		"/>
		<polygon fill="#2BB673" stroke="#21409A" stroke-width="2" stroke-miterlimit="10" points="95,211.6 83.9,192.3 95,173 117.3,173 
			128.4,192.3 117.3,211.6 		"/>
		<polygon fill="#049FDA" stroke="#21409A" stroke-width="2" stroke-miterlimit="10" points="94,134.4 82.9,115.1 94,95.8 
			116.3,95.8 127.5,115.1 116.3,134.4 		"/>
		<polygon fill="#049FDA" stroke="#21409A" stroke-width="2" stroke-miterlimit="10" points="228.7,58.4 217.6,39.1 228.7,19.8 
			251,19.8 262.1,39.1 251,58.4 		"/>
		<text transform="matrix(1 0 0 1 66.3326 63.682)" font-family="'MVBoli'" font-size="14.4">Spring 2013</text>
		<text transform="matrix(1 0 0 1 461.9358 400)"><tspan x="0" y="0" fill="#EC008C" font-family="'MVBoli'" font-size="14.4">Math</tspan><tspan x="-41.8" y="17.3" fill="#00BAC8" font-family="'MVBoli'" font-size="14.4">Computer Science</tspan><tspan x="-0.6" y="34.6" fill="#7F3F98" font-family="'MVBoli'" font-size="14.4">Music</tspan><tspan x="-15.5" y="51.8" fill="#2BB673" font-family="'MVBoli'" font-size="14.4">Chemistry</tspan></text>
	</g>
	<g>
		<polygon fill="#7F3F98" stroke="#21409A" stroke-width="2" stroke-miterlimit="10" points="143.2,645.7 132.1,626.4 143.2,607.1 
			165.5,607.1 176.7,626.4 165.5,645.7 		"/>
		<polygon fill="#049FDA" stroke="#21409A" stroke-width="2" stroke-miterlimit="10" points="109.5,626.4 98.3,607.1 109.5,587.8 
			131.7,587.8 142.9,607.1 131.7,626.4 		"/>
		<polygon fill="#7F3F98" stroke="#21409A" stroke-width="2" stroke-miterlimit="10" points="176.7,587.8 165.6,568.5 176.7,549.2 
			199,549.2 210.2,568.5 199,587.8 		"/>
		<polygon fill="#27AAE1" stroke="#21409A" stroke-width="2" stroke-miterlimit="10" points="378.9,665 367.8,645.7 378.9,626.4 
			401.2,626.4 412.3,645.7 401.2,665 		"/>
		<polygon fill="#2BB673" stroke="#21409A" stroke-width="2" stroke-miterlimit="10" points="176.7,665 165.5,645.7 176.7,626.4 
			199,626.4 210.1,645.7 199,665 		"/>
		<polygon fill="#2BB673" stroke="#21409A" stroke-width="2" stroke-miterlimit="10" points="311.2,741 300.1,721.7 311.2,702.4 
			333.5,702.4 344.7,721.7 333.5,741 		"/>
		<polygon fill="#2BB673" stroke="#21409A" stroke-width="2" stroke-miterlimit="10" points="311.2,549.2 300.1,529.9 311.2,510.6 
			333.5,510.6 344.7,529.9 333.5,549.2 		"/>
		<polygon fill="#2BB673" stroke="#21409A" stroke-width="2" stroke-miterlimit="10" points="345.1,684.3 334,665 345.1,645.7 
			367.4,645.7 378.6,665 367.4,684.3 		"/>
		<polygon fill="#7F3F98" stroke="#21409A" stroke-width="2" stroke-miterlimit="10" points="109.5,703.6 98.3,684.3 109.5,665 
			131.7,665 142.9,684.3 131.7,703.6 		"/>
		<polygon fill="#049FDA" stroke="#21409A" stroke-width="2" stroke-miterlimit="10" points="345.1,568.5 334,549.2 345.1,529.9 
			367.4,529.9 378.6,549.2 367.4,568.5 		"/>
		<polygon fill="#7F3F98" stroke="#21409A" stroke-width="2" stroke-miterlimit="10" points="311.2,587.8 300.1,568.5 311.2,549.2 
			333.5,549.2 344.7,568.5 333.5,587.8 		"/>
		<polygon fill="#7F3F98" stroke="#21409A" stroke-width="2" stroke-miterlimit="10" points="345.1,645.7 334,626.4 345.1,607.1 
			367.4,607.1 378.6,626.4 367.4,645.7 		"/>
		<polygon fill="#7F3F98" stroke="#21409A" stroke-width="2" stroke-miterlimit="10" points="109.5,587.8 98.3,568.5 109.5,549.2 
			131.7,549.2 142.9,568.5 131.7,587.8 		"/>
		<polygon fill="#2BB673" stroke="#21409A" stroke-width="2" stroke-miterlimit="10" points="176.7,741 165.6,721.7 176.7,702.4 
			199,702.4 210.2,721.7 199,741 		"/>
		<polygon fill="#7F3F98" stroke="#21409A" stroke-width="2" stroke-miterlimit="10" points="243.9,703.6 232.7,684.3 243.9,665 
			266.1,665 277.3,684.3 266.1,703.6 		"/>
		<polygon fill="#7F3F98" stroke="#21409A" stroke-width="2" stroke-miterlimit="10" points="176.7,703.6 165.6,684.3 176.7,665 
			199,665 210.2,684.3 199,703.6 		"/>
		<polygon fill="#EC008C" stroke="#21409A" stroke-width="2" stroke-miterlimit="10" points="143.2,529.9 132.1,510.6 143.2,491.3 
			165.5,491.3 176.7,510.6 165.5,529.9 		"/>
		<polygon fill="#049FDA" stroke="#21409A" stroke-width="2" stroke-miterlimit="10" points="210.7,722.9 199.6,703.6 210.7,684.3 
			233,684.3 244.2,703.6 233,722.9 		"/>
		<polygon fill="#EC008C" stroke="#21409A" stroke-width="2" stroke-miterlimit="10" points="345.1,529.9 334,510.6 345.1,491.3 
			367.4,491.3 378.6,510.6 367.4,529.9 		"/>
		<polygon fill="#049FDA" stroke="#21409A" stroke-width="2" stroke-miterlimit="10" points="345.1,722.9 334,703.6 345.1,684.3 
			367.4,684.3 378.6,703.6 367.4,722.9 		"/>
		<polygon fill="#049FDA" stroke="#21409A" stroke-width="2" stroke-miterlimit="10" points="278.5,721.7 267.4,702.4 278.5,683.1 
			300.8,683.1 312,702.4 300.8,721.7 		"/>
		<polygon fill="#7F3F98" stroke="#21409A" stroke-width="2" stroke-miterlimit="10" points="378.9,703.6 367.8,684.3 378.9,665 
			401.2,665 412.3,684.3 401.2,703.6 		"/>
		<polygon fill="#EC008C" stroke="#21409A" stroke-width="2" stroke-miterlimit="10" points="278.5,760.3 267.4,741 278.5,721.7 
			300.8,721.7 312,741 300.8,760.3 		"/>
		<polygon fill="#EC008C" stroke="#21409A" stroke-width="2" stroke-miterlimit="10" points="210.7,607.1 199.6,587.8 210.7,568.5 
			233,568.5 244.2,587.8 233,607.1 		"/>
		<polygon fill="#EC008C" stroke="#21409A" stroke-width="2" stroke-miterlimit="10" points="311.2,626.4 300.1,607.1 311.2,587.8 
			333.5,587.8 344.7,607.1 333.5,626.4 		"/>
		<polygon fill="#EC008C" stroke="#21409A" stroke-width="2" stroke-miterlimit="10" points="345.1,607.1 334,587.8 345.1,568.5 
			367.4,568.5 378.6,587.8 367.4,607.1 		"/>
		<polygon fill="#2BB673" stroke="#21409A" stroke-width="2" stroke-miterlimit="10" points="245.1,741 233.9,721.7 245.1,702.4 
			267.3,702.4 278.5,721.7 267.3,741 		"/>
		<polygon fill="#EC008C" stroke="#21409A" stroke-width="2" stroke-miterlimit="10" points="210.7,760.3 199.6,741 210.7,721.7 
			233,721.7 244.2,741 233,760.3 		"/>
		<polygon fill="#EC008C" stroke="#21409A" stroke-width="2" stroke-miterlimit="10" points="143.2,760.3 132.1,741 143.2,721.7 
			165.5,721.7 176.7,741 165.5,760.3 		"/>
		<polygon fill="#EC008C" stroke="#21409A" stroke-width="2" stroke-miterlimit="10" points="345.1,760.3 334,741 345.1,721.7 
			367.4,721.7 378.6,741 367.4,760.3 		"/>
		<polygon fill="#EC008C" stroke="#21409A" stroke-width="2" stroke-miterlimit="10" points="210.7,529.9 199.6,510.6 210.7,491.3 
			233,491.3 244.2,510.6 233,529.9 		"/>
		<polygon fill="#2BB673" stroke="#21409A" stroke-width="2" stroke-miterlimit="10" points="243.9,549.2 232.7,529.9 243.9,510.6 
			266.1,510.6 277.3,529.9 266.1,549.2 		"/>
		<polygon fill="#2BB673" stroke="#21409A" stroke-width="2" stroke-miterlimit="10" points="243.9,665 232.7,645.7 243.9,626.4 
			266.1,626.4 277.3,645.7 266.1,665 		"/>
		<polygon fill="#2BB673" stroke="#21409A" stroke-width="2" stroke-miterlimit="10" points="176.7,549.2 165.5,529.9 176.7,510.6 
			199,510.6 210.1,529.9 199,549.2 		"/>
		<polygon fill="#EC008C" stroke="#21409A" stroke-width="2" stroke-miterlimit="10" points="411.7,607.1 400.6,587.8 411.7,568.5 
			434,568.5 445.2,587.8 434,607.1 		"/>
		<polygon fill="#EC008C" stroke="#21409A" stroke-width="2" stroke-miterlimit="10" points="245.1,779.6 233.9,760.3 245.1,741 
			267.3,741 278.5,760.3 267.3,779.6 		"/>
		<polygon fill="#EC008C" stroke="#21409A" stroke-width="2" stroke-miterlimit="10" points="143.2,607.1 132.1,587.8 143.2,568.5 
			165.5,568.5 176.7,587.8 165.5,607.1 		"/>
		<polygon fill="#EC008C" stroke="#21409A" stroke-width="2" stroke-miterlimit="10" points="277.3,529.9 266.2,510.6 277.3,491.3 
			299.6,491.3 310.8,510.6 299.6,529.9 		"/>
		<polygon fill="#7F3F98" stroke="#21409A" stroke-width="2" stroke-miterlimit="10" points="311.2,703.6 300.1,684.3 311.2,665 
			333.5,665 344.7,684.3 333.5,703.6 		"/>
		<polygon fill="#2BB673" stroke="#21409A" stroke-width="2" stroke-miterlimit="10" points="143.2,684.3 132.1,665 143.2,645.7 
			165.5,645.7 176.7,665 165.5,684.3 		"/>
		<polygon fill="#7F3F98" stroke="#21409A" stroke-width="2" stroke-miterlimit="10" points="378.9,587.8 367.8,568.5 378.9,549.2 
			401.2,549.2 412.3,568.5 401.2,587.8 		"/>
		<polygon fill="#2BB673" stroke="#21409A" stroke-width="2" stroke-miterlimit="10" points="210.7,684.3 199.6,665 210.7,645.7 
			233,645.7 244.2,665 233,684.3 		"/>
		<polygon fill="#2BB673" stroke="#21409A" stroke-width="2" stroke-miterlimit="10" points="311.2,665 300.1,645.7 311.2,626.4 
			333.5,626.4 344.7,645.7 333.5,665 		"/>
		<polygon fill="#2BB673" stroke="#21409A" stroke-width="2" stroke-miterlimit="10" points="76.3,645.7 65.2,626.4 76.3,607.1 
			98.6,607.1 109.7,626.4 98.6,645.7 		"/>
		<polygon fill="#2BB673" stroke="#21409A" stroke-width="2" stroke-miterlimit="10" points="411.7,645.7 400.6,626.4 411.7,607.1 
			434,607.1 445.2,626.4 434,645.7 		"/>
		<polygon fill="#2BB673" stroke="#21409A" stroke-width="2" stroke-miterlimit="10" points="277.3,684.3 266.2,665 277.3,645.7 
			299.6,645.7 310.8,665 299.6,684.3 		"/>
		<polygon fill="#7F3F98" stroke="#21409A" stroke-width="2" stroke-miterlimit="10" points="210.7,645.7 199.6,626.4 210.7,607.1 
			233,607.1 244.2,626.4 233,645.7 		"/>
		<polygon fill="#7F3F98" stroke="#21409A" stroke-width="2" stroke-miterlimit="10" points="277.3,645.7 266.2,626.4 277.3,607.1 
			299.6,607.1 310.8,626.4 299.6,645.7 		"/>
		<polygon fill="#7F3F98" stroke="#21409A" stroke-width="2" stroke-miterlimit="10" points="243.9,587.8 232.7,568.5 243.9,549.2 
			266.1,549.2 277.3,568.5 266.1,587.8 		"/>
		<polygon fill="#049FDA" stroke="#21409A" stroke-width="2" stroke-miterlimit="10" points="378.9,626.4 367.8,607.1 378.9,587.8 
			401.2,587.8 412.3,607.1 401.2,626.4 		"/>
		<polygon fill="#7F3F98" stroke="#21409A" stroke-width="2" stroke-miterlimit="10" points="243.9,509 232.7,489.7 243.9,470.4 
			266.1,470.4 277.3,489.7 266.1,509 		"/>
		<polygon fill="#049FDA" stroke="#21409A" stroke-width="2" stroke-miterlimit="10" points="210.7,568.5 199.6,549.2 210.7,529.9 
			233,529.9 244.2,549.2 233,568.5 		"/>
		<polygon fill="#049FDA" stroke="#21409A" stroke-width="2" stroke-miterlimit="10" points="143.2,568.5 132.1,549.2 143.2,529.9 
			165.5,529.9 176.7,549.2 165.5,568.5 		"/>
		<polygon fill="#049FDA" stroke="#21409A" stroke-width="2" stroke-miterlimit="10" points="109.5,665 98.3,645.7 109.5,626.4 
			131.7,626.4 142.9,645.7 131.7,665 		"/>
		<polygon fill="#049FDA" stroke="#21409A" stroke-width="2" stroke-miterlimit="10" points="277.3,568.5 266.2,549.2 277.3,529.9 
			299.6,529.9 310.8,549.2 299.6,568.5 		"/>
		<polygon fill="#049FDA" stroke="#21409A" stroke-width="2" stroke-miterlimit="10" points="143.2,722.9 132.1,703.6 143.2,684.3 
			165.5,684.3 176.7,703.6 165.5,722.9 		"/>
		<polygon fill="#EC008C" stroke="#21409A" stroke-width="2" stroke-miterlimit="10" points="243.9,626.4 232.7,607.1 243.9,587.8 
			266.1,587.8 277.3,607.1 266.1,626.4 		"/>
		<polygon fill="#EC008C" stroke="#21409A" stroke-width="2" stroke-miterlimit="10" points="277.3,607.1 266.2,587.8 277.3,568.5 
			299.6,568.5 310.8,587.8 299.6,607.1 		"/>
		<polygon fill="#EC008C" stroke="#21409A" stroke-width="2" stroke-miterlimit="10" points="76.3,607.1 65.2,587.8 76.3,568.5 
			98.6,568.5 109.7,587.8 98.6,607.1 		"/>
		<polygon fill="#EC008C" stroke="#21409A" stroke-width="2" stroke-miterlimit="10" points="176.7,626.4 165.5,607.1 176.7,587.8 
			199,587.8 210.1,607.1 199,626.4 		"/>
		<text transform="matrix(1 0 0 1 65.1669 535.038)" font-family="'MVBoli'" font-size="14.4">Fall 2013</text>
	</g>
	<g>
		<g>
			<polygon fill="#7F3F98" stroke="#21409A" stroke-width="2" stroke-miterlimit="10" points="640.3,308.5 629.1,289.2 640.3,269.9 
				662.6,269.9 673.7,289.2 662.6,308.5 			"/>
			<polygon fill="#7F3F98" stroke="#21409A" stroke-width="2" stroke-miterlimit="10" points="740.5,96.7 729.2,77.5 740.1,58.1 
				762.4,57.9 773.7,77.1 762.8,96.5 			"/>
			<polygon fill="#7F3F98" stroke="#21409A" stroke-width="2" stroke-miterlimit="10" points="573.9,231.4 562.8,212.1 573.9,192.8 
				596.2,192.8 607.3,212.1 596.2,231.4 			"/>
			<polygon fill="#7F3F98" stroke="#21409A" stroke-width="2" stroke-miterlimit="10" points="874.3,212 863.1,192.7 874.3,173.4 
				896.6,173.4 907.7,192.7 896.6,212 			"/>
			<polygon fill="#2BB673" stroke="#21409A" stroke-width="2" stroke-miterlimit="10" points="606.8,135.2 595.6,115.9 606.8,96.6 
				629.1,96.6 640.2,115.9 629.1,135.2 			"/>
			<polygon fill="#2BB673" stroke="#21409A" stroke-width="2" stroke-miterlimit="10" points="740.3,135.2 729.2,115.9 740.3,96.6 
				762.6,96.6 773.7,115.9 762.6,135.2 			"/>
			<polygon fill="#2BB673" stroke="#21409A" stroke-width="2" stroke-miterlimit="10" points="673.5,135.2 662.4,115.9 673.5,96.6 
				695.8,96.6 706.9,115.9 695.8,135.2 			"/>
			<polygon fill="#2BB673" stroke="#21409A" stroke-width="2" stroke-miterlimit="10" points="806.9,135.2 795.8,115.9 806.9,96.6 
				829.2,96.6 840.3,115.9 829.2,135.2 			"/>
			<polygon fill="#7F3F98" stroke="#21409A" stroke-width="2" stroke-miterlimit="10" points="706.5,231.4 695.4,212.1 706.5,192.8 
				728.8,192.8 739.9,212.1 728.8,231.4 			"/>
			<polygon fill="#049FDA" stroke="#21409A" stroke-width="2" stroke-miterlimit="10" points="606.8,173.4 595.6,154.1 606.8,134.8 
				629.1,134.8 640.2,154.1 629.1,173.4 			"/>
			<polygon fill="#7F3F98" stroke="#21409A" stroke-width="2" stroke-miterlimit="10" points="706.5,308.5 695.4,289.2 706.5,269.9 
				728.8,269.9 739.9,289.2 728.8,308.5 			"/>
			<polygon fill="#7F3F98" stroke="#21409A" stroke-width="2" stroke-miterlimit="10" points="840.2,231.3 829.1,212 840.2,192.7 
				862.5,192.7 873.6,212 862.5,231.3 			"/>
			<polygon fill="#7F3F98" stroke="#21409A" stroke-width="2" stroke-miterlimit="10" points="773.6,231.3 762.5,212 773.6,192.7 
				795.9,192.7 807,212 795.9,231.3 			"/>
			<polygon fill="#2BB673" stroke="#21409A" stroke-width="2" stroke-miterlimit="10" points="540.9,212 529.8,192.7 540.9,173.4 
				563.2,173.4 574.4,192.7 563.2,212 			"/>
			<polygon fill="#7F3F98" stroke="#21409A" stroke-width="2" stroke-miterlimit="10" points="773.6,154.5 762.5,135.2 773.6,115.9 
				795.9,115.9 807,135.2 795.9,154.5 			"/>
			<polygon fill="#7F3F98" stroke="#21409A" stroke-width="2" stroke-miterlimit="10" points="840.2,154.1 829.1,134.8 840.2,115.5 
				862.5,115.5 873.6,134.8 862.5,154.1 			"/>
			<polygon fill="#EC008C" stroke="#21409A" stroke-width="2" stroke-miterlimit="10" points="773.6,269.9 762.5,250.6 773.6,231.3 
				795.9,231.3 807,250.6 795.9,269.9 			"/>
			<polygon fill="#049FDA" stroke="#21409A" stroke-width="2" stroke-miterlimit="10" points="673.5,173.4 662.4,154.1 673.5,134.8 
				695.8,134.8 706.9,154.1 695.8,173.4 			"/>
			<polygon fill="#EC008C" stroke="#21409A" stroke-width="2" stroke-miterlimit="10" points="706.5,115.9 695.4,96.6 706.5,77.3 
				728.8,77.3 739.9,96.6 728.8,115.9 			"/>
			<polygon fill="#049FDA" stroke="#21409A" stroke-width="2" stroke-miterlimit="10" points="806.9,173.4 795.8,154.1 806.9,134.8 
				829.2,134.8 840.3,154.1 829.2,173.4 			"/>
			<polygon fill="#049FDA" stroke="#21409A" stroke-width="2" stroke-miterlimit="10" points="740,173.4 728.8,154.1 740,134.8 
				762.3,134.8 773.4,154.1 762.3,173.4 			"/>
			<polygon fill="#7F3F98" stroke="#21409A" stroke-width="2" stroke-miterlimit="10" points="706.5,154.1 695.4,134.8 706.5,115.5 
				728.8,115.5 739.9,134.8 728.8,154.1 			"/>
			<polygon fill="#EC008C" stroke="#21409A" stroke-width="2" stroke-miterlimit="10" points="706.5,192.7 695.4,173.4 706.5,154.1 
				728.8,154.1 739.9,173.4 728.8,192.7 			"/>
			<polygon fill="#2BB673" stroke="#21409A" stroke-width="2" stroke-miterlimit="10" points="540.9,250.6 529.8,231.3 540.9,212 
				563.2,212 574.4,231.3 563.2,250.6 			"/>
			<polygon fill="#EC008C" stroke="#21409A" stroke-width="2" stroke-miterlimit="10" points="908.9,231.4 897.8,212.1 908.9,192.8 
				931.2,192.8 942.4,212.1 931.2,231.4 			"/>
			<polygon fill="#EC008C" stroke="#21409A" stroke-width="2" stroke-miterlimit="10" points="707.7,269.9 696.6,250.6 707.7,231.4 
				730,231.4 741.1,250.6 730,269.9 			"/>
			<polygon fill="#2BB673" stroke="#21409A" stroke-width="2" stroke-miterlimit="10" points="874.3,173.8 863.1,154.5 874.3,135.2 
				896.6,135.2 907.7,154.5 896.6,173.8 			"/>
			<polygon fill="#EC008C" stroke="#21409A" stroke-width="2" stroke-miterlimit="10" points="840.2,269.9 829.1,250.6 840.2,231.3 
				862.5,231.3 873.6,250.6 862.5,269.9 			"/>
			<polygon fill="#EC008C" stroke="#21409A" stroke-width="2" stroke-miterlimit="10" points="640.3,192.7 629.1,173.4 640.3,154.1 
				662.6,154.1 673.7,173.4 662.6,192.7 			"/>
			<polygon fill="#EC008C" stroke="#21409A" stroke-width="2" stroke-miterlimit="10" points="840.2,192.7 829.1,173.4 840.2,154.1 
				862.5,154.1 873.6,173.4 862.5,192.7 			"/>
			<polygon fill="#EC008C" stroke="#21409A" stroke-width="2" stroke-miterlimit="10" points="573.9,192.7 562.8,173.4 573.9,154.1 
				596.2,154.1 607.3,173.4 596.2,192.7 			"/>
			<polygon fill="#2BB673" stroke="#21409A" stroke-width="2" stroke-miterlimit="10" points="806.9,289.2 795.8,269.9 806.9,250.6 
				829.2,250.6 840.3,269.9 829.2,289.2 			"/>
			<polygon fill="#2BB673" stroke="#21409A" stroke-width="2" stroke-miterlimit="10" points="874.3,250.6 863.1,231.3 874.3,212 
				896.6,212 907.7,231.3 896.6,250.6 			"/>
			<polygon fill="#2BB673" stroke="#21409A" stroke-width="2" stroke-miterlimit="10" points="607.2,212 596,192.7 607.2,173.4 
				629.5,173.4 640.6,192.7 629.5,212 			"/>
			<polygon fill="#EC008C" stroke="#21409A" stroke-width="2" stroke-miterlimit="10" points="773.6,115.9 762.5,96.6 773.6,77.3 
				795.9,77.3 807,96.6 795.9,115.9 			"/>
			<polygon fill="#EC008C" stroke="#21409A" stroke-width="2" stroke-miterlimit="10" points="640.3,115.9 629.1,96.6 640.3,77.3 
				662.6,77.3 673.7,96.6 662.6,115.9 			"/>
			<polygon fill="#EC008C" stroke="#21409A" stroke-width="2" stroke-miterlimit="10" points="508,231.4 496.9,212.1 508,192.8 
				530.3,192.8 541.4,212.1 530.3,231.4 			"/>
			<polygon fill="#7F3F98" stroke="#21409A" stroke-width="2" stroke-miterlimit="10" points="673.5,95.4 662.4,76.1 673.5,56.8 
				695.8,56.8 706.9,76.1 695.8,95.4 			"/>
			<polygon fill="#7F3F98" stroke="#21409A" stroke-width="2" stroke-miterlimit="10" points="640.3,154.1 629.1,134.8 640.3,115.5 
				662.6,115.5 673.7,134.8 662.6,154.1 			"/>
			<polygon fill="#2BB673" stroke="#21409A" stroke-width="2" stroke-miterlimit="10" points="606.8,289.2 595.6,269.9 606.8,250.6 
				629.1,250.6 640.2,269.9 629.1,289.2 			"/>
			<polygon fill="#7F3F98" stroke="#21409A" stroke-width="2" stroke-miterlimit="10" points="573.9,154.1 562.8,134.8 573.9,115.5 
				596.2,115.5 607.3,134.8 596.2,154.1 			"/>
			<polygon fill="#2BB673" stroke="#21409A" stroke-width="2" stroke-miterlimit="10" points="740,212 728.8,192.7 740,173.4 
				762.3,173.4 773.4,192.7 762.3,212 			"/>
			<polygon fill="#2BB673" stroke="#21409A" stroke-width="2" stroke-miterlimit="10" points="673.5,212 662.4,192.7 673.5,173.4 
				695.8,173.4 706.9,192.7 695.8,212 			"/>
			<polygon fill="#2BB673" stroke="#21409A" stroke-width="2" stroke-miterlimit="10" points="806.9,212 795.8,192.7 806.9,173.4 
				829.2,173.4 840.3,192.7 829.2,212 			"/>
			<polygon fill="#2BB673" stroke="#21409A" stroke-width="2" stroke-miterlimit="10" points="740,289.2 728.8,269.9 740,250.6 
				762.3,250.6 773.4,269.9 762.3,289.2 			"/>
			<polygon fill="#2BB673" stroke="#21409A" stroke-width="2" stroke-miterlimit="10" points="673.5,289.2 662.4,269.9 673.5,250.6 
				695.8,250.6 706.9,269.9 695.8,289.2 			"/>
			<polygon fill="#7F3F98" stroke="#21409A" stroke-width="2" stroke-miterlimit="10" points="908.9,192.7 897.8,173.4 908.9,154.1 
				931.2,154.1 942.4,173.4 931.2,192.7 			"/>
			<polygon fill="#7F3F98" stroke="#21409A" stroke-width="2" stroke-miterlimit="10" points="508,192.7 496.9,173.4 508,154.1 
				530.3,154.1 541.4,173.4 530.3,192.7 			"/>
			<polygon fill="#7F3F98" stroke="#21409A" stroke-width="2" stroke-miterlimit="10" points="773.6,308.5 762.5,289.2 773.6,269.9 
				795.9,269.9 807,289.2 795.9,308.5 			"/>
			<polygon fill="#049FDA" stroke="#21409A" stroke-width="2" stroke-miterlimit="10" points="606,250.6 594.8,231.3 606,212 
				628.3,212 639.4,231.3 628.3,250.6 			"/>
			<polygon fill="#7F3F98" stroke="#21409A" stroke-width="2" stroke-miterlimit="10" points="640.3,231.4 629.1,212.1 640.3,192.8 
				662.6,192.8 673.7,212.1 662.6,231.4 			"/>
			<polygon fill="#049FDA" stroke="#21409A" stroke-width="2" stroke-miterlimit="10" points="740.3,327.8 729.2,308.5 740.3,289.2 
				762.6,289.2 773.7,308.5 762.6,327.8 			"/>
			<polygon fill="#049FDA" stroke="#21409A" stroke-width="2" stroke-miterlimit="10" points="673.5,327.8 662.4,308.5 673.5,289.2 
				695.8,289.2 706.9,308.5 695.8,327.8 			"/>
			<polygon fill="#049FDA" stroke="#21409A" stroke-width="2" stroke-miterlimit="10" points="806.9,250.6 795.8,231.4 806.9,212.1 
				829.2,212.1 840.3,231.4 829.2,250.6 			"/>
			<polygon fill="#049FDA" stroke="#21409A" stroke-width="2" stroke-miterlimit="10" points="673.5,250.6 662.4,231.3 673.5,212 
				695.8,212 706.9,231.3 695.8,250.6 			"/>
			<polygon fill="#049FDA" stroke="#21409A" stroke-width="2" stroke-miterlimit="10" points="740,250.6 728.8,231.3 740,212 
				762.3,212 773.4,231.3 762.3,250.6 			"/>
			<polygon fill="#EC008C" stroke="#21409A" stroke-width="2" stroke-miterlimit="10" points="573.9,269.9 562.8,250.6 573.9,231.3 
				596.2,231.3 607.3,250.6 596.2,269.9 			"/>
			<polygon fill="#EC008C" stroke="#21409A" stroke-width="2" stroke-miterlimit="10" points="640.3,269.9 629.1,250.6 640.3,231.3 
				662.6,231.3 673.7,250.6 662.6,269.9 			"/>
			<polygon fill="#EC008C" stroke="#21409A" stroke-width="2" stroke-miterlimit="10" points="773.6,192.7 762.5,173.4 773.6,154.1 
				795.9,154.1 807,173.4 795.9,192.7 			"/>
			<polygon fill="#2BB673" stroke="#21409A" stroke-width="2" stroke-miterlimit="10" points="540.9,173.4 529.8,154.1 540.9,134.8 
				563.2,134.8 574.4,154.1 563.2,173.4 			"/>
		</g>
		<text transform="matrix(1 0 0 1 512.0243 106.2001)" font-family="'MVBoli'" font-size="14.4">Spring 2014</text>
	</g>
	<g>
		<polygon fill="#7F3F98" stroke="#21409A" stroke-width="2" stroke-miterlimit="10" points="651,604.7 639.8,585.4 651,566.1 
			673.2,566.1 684.4,585.4 673.2,604.7 		"/>
		<polygon fill="#049FDA" stroke="#21409A" stroke-width="2" stroke-miterlimit="10" points="851.3,643.6 839.9,624.5 850.9,605 
			873.1,604.8 884.5,624 873.5,643.4 		"/>
		<polygon fill="#7F3F98" stroke="#21409A" stroke-width="2" stroke-miterlimit="10" points="550.3,662.7 539.2,643.5 550.3,624.2 
			572.6,624.2 583.7,643.5 572.6,662.7 		"/>
		<polygon fill="#EC008C" stroke="#21409A" stroke-width="2" stroke-miterlimit="10" points="884.5,585.6 873.3,566.3 884.5,547 
			906.7,547 917.9,566.3 906.7,585.6 		"/>
		<polygon fill="#2BB673" stroke="#21409A" stroke-width="2" stroke-miterlimit="10" points="651,566.2 639.8,546.9 651,527.6 
			673.2,527.6 684.4,546.9 673.2,566.2 		"/>
		<polygon fill="#2BB673" stroke="#21409A" stroke-width="2" stroke-miterlimit="10" points="684.3,546.9 673.1,527.6 684.3,508.3 
			706.5,508.3 717.7,527.6 706.5,546.9 		"/>
		<polygon fill="#2BB673" stroke="#21409A" stroke-width="2" stroke-miterlimit="10" points="550.3,701.4 539.2,682.1 550.3,662.8 
			572.6,662.8 583.7,682.1 572.6,701.4 		"/>
		<polygon fill="#2BB673" stroke="#21409A" stroke-width="2" stroke-miterlimit="10" points="817.9,546.9 806.8,527.6 817.9,508.3 
			840.2,508.3 851.4,527.6 840.2,546.9 		"/>
		<polygon fill="#7F3F98" stroke="#21409A" stroke-width="2" stroke-miterlimit="10" points="718.2,566.2 707,546.9 718.2,527.6 
			740.4,527.6 751.6,546.9 740.4,566.2 		"/>
		<polygon fill="#7F3F98" stroke="#21409A" stroke-width="2" stroke-miterlimit="10" points="751.9,624.2 740.8,604.9 751.9,585.6 
			774.2,585.6 785.3,604.9 774.2,624.2 		"/>
		<polygon fill="#2BB673" stroke="#21409A" stroke-width="2" stroke-miterlimit="10" points="584.4,682 573.2,662.7 584.4,643.5 
			606.6,643.5 617.8,662.7 606.6,682 		"/>
		<polygon fill="#7F3F98" stroke="#21409A" stroke-width="2" stroke-miterlimit="10" points="750.4,546.9 739.3,527.6 750.4,508.3 
			772.7,508.3 783.8,527.6 772.7,546.9 		"/>
		<polygon fill="#2BB673" stroke="#21409A" stroke-width="2" stroke-miterlimit="10" points="617.2,662.8 606,643.5 617.2,624.2 
			639.5,624.2 650.6,643.5 639.5,662.8 		"/>
		<polygon fill="#7F3F98" stroke="#21409A" stroke-width="2" stroke-miterlimit="10" points="817.9,508.3 806.8,489 817.9,469.7 
			840.2,469.7 851.4,489 840.2,508.3 		"/>
		<polygon fill="#7F3F98" stroke="#21409A" stroke-width="2" stroke-miterlimit="10" points="783.9,604.8 772.7,585.5 783.9,566.2 
			806.1,566.2 817.3,585.5 806.1,604.8 		"/>
		<polygon fill="#049FDA" stroke="#21409A" stroke-width="2" stroke-miterlimit="10" points="651,759.3 639.8,740 651,720.7 
			673.2,720.7 684.4,740 673.2,759.3 		"/>
		<polygon fill="#049FDA" stroke="#21409A" stroke-width="2" stroke-miterlimit="10" points="718.2,720.7 707,701.4 718.2,682.1 
			740.4,682.1 751.6,701.4 740.4,720.7 		"/>
		<polygon fill="#EC008C" stroke="#21409A" stroke-width="2" stroke-miterlimit="10" points="851.1,682.1 839.9,662.8 851.1,643.5 
			873.3,643.5 884.5,662.8 873.3,682.1 		"/>
		<polygon fill="#049FDA" stroke="#21409A" stroke-width="2" stroke-miterlimit="10" points="817.9,662.8 806.8,643.5 817.9,624.2 
			840.2,624.2 851.4,643.5 840.2,662.8 		"/>
		<polygon fill="#049FDA" stroke="#21409A" stroke-width="2" stroke-miterlimit="10" points="751.9,701.4 740.8,682.1 751.9,662.8 
			774.2,662.8 785.3,682.1 774.2,701.4 		"/>
		<polygon fill="#7F3F98" stroke="#21409A" stroke-width="2" stroke-miterlimit="10" points="817.9,585.5 806.8,566.2 817.9,546.9 
			840.2,546.9 851.4,566.2 840.2,585.5 		"/>
		<polygon fill="#049FDA" stroke="#21409A" stroke-width="2" stroke-miterlimit="10" points="785.3,682 774.1,662.7 785.3,643.4 
			807.5,643.4 818.7,662.7 807.5,682 		"/>
		<polygon fill="#EC008C" stroke="#21409A" stroke-width="2" stroke-miterlimit="10" points="884.6,662.6 873.4,643.3 884.6,624 
			906.8,624 918,643.3 906.8,662.6 		"/>
		<polygon fill="#EC008C" stroke="#21409A" stroke-width="2" stroke-miterlimit="10" points="618.4,740 607.2,720.7 618.4,701.4 
			640.7,701.4 651.8,720.7 640.7,740 		"/>
		<polygon fill="#EC008C" stroke="#21409A" stroke-width="2" stroke-miterlimit="10" points="684.3,701.4 673.1,682.1 684.3,662.8 
			706.5,662.8 717.7,682.1 706.5,701.4 		"/>
		<polygon fill="#2BB673" stroke="#21409A" stroke-width="2" stroke-miterlimit="10" points="783.9,489 772.7,469.7 783.9,450.4 
			806.1,450.4 817.3,469.7 806.1,489 		"/>
		<polygon fill="#EC008C" stroke="#21409A" stroke-width="2" stroke-miterlimit="10" points="751.9,662.8 740.8,643.5 751.9,624.2 
			774.2,624.2 785.3,643.5 774.2,662.8 		"/>
		<polygon fill="#EC008C" stroke="#21409A" stroke-width="2" stroke-miterlimit="10" points="718.2,682 707,662.7 718.2,643.4 
			740.4,643.4 751.6,662.7 740.4,682 		"/>
		<polygon fill="#EC008C" stroke="#21409A" stroke-width="2" stroke-miterlimit="10" points="785.3,643.3 774.1,624 785.3,604.7 
			807.5,604.7 818.7,624 807.5,643.3 		"/>
		<polygon fill="#049FDA" stroke="#21409A" stroke-width="2" stroke-miterlimit="10" points="884.6,624 873.4,604.7 884.6,585.4 
			906.8,585.4 918,604.7 906.8,624 		"/>
		<polygon fill="#2BB673" stroke="#21409A" stroke-width="2" stroke-miterlimit="10" points="718.2,604.7 707,585.4 718.2,566.1 
			740.4,566.1 751.6,585.4 740.4,604.7 		"/>
		<polygon fill="#2BB673" stroke="#21409A" stroke-width="2" stroke-miterlimit="10" points="684.3,624 673.1,604.7 684.3,585.4 
			706.5,585.4 717.7,604.7 706.5,624 		"/>
		<polygon fill="#2BB673" stroke="#21409A" stroke-width="2" stroke-miterlimit="10" points="518,643.5 506.8,624.2 518,604.9 
			540.2,604.9 551.4,624.2 540.2,643.5 		"/>
		<polygon fill="#EC008C" stroke="#21409A" stroke-width="2" stroke-miterlimit="10" points="785.3,720.7 774.1,701.4 785.3,682.1 
			807.5,682.1 818.7,701.4 807.5,720.7 		"/>
		<polygon fill="#EC008C" stroke="#21409A" stroke-width="2" stroke-miterlimit="10" points="817.9,701.4 806.8,682.1 817.9,662.8 
			840.2,662.8 851.4,682.1 840.2,701.4 		"/>
		<polygon fill="#EC008C" stroke="#21409A" stroke-width="2" stroke-miterlimit="10" points="751.9,740 740.8,720.7 751.9,701.4 
			774.2,701.4 785.3,720.7 774.2,740 		"/>
		<polygon fill="#EC008C" stroke="#21409A" stroke-width="2" stroke-miterlimit="10" points="851.1,604.9 839.9,585.6 851.1,566.3 
			873.3,566.3 884.5,585.6 873.3,604.9 		"/>
		<polygon fill="#7F3F98" stroke="#21409A" stroke-width="2" stroke-miterlimit="10" points="783.9,527.6 772.7,508.3 783.9,489 
			806.1,489 817.3,508.3 806.1,527.6 		"/>
		<polygon fill="#2BB673" stroke="#21409A" stroke-width="2" stroke-miterlimit="10" points="551.1,624.1 539.9,604.8 551.1,585.5 
			573.3,585.5 584.5,604.8 573.3,624.1 		"/>
		<polygon fill="#7F3F98" stroke="#21409A" stroke-width="2" stroke-miterlimit="10" points="851.1,566.2 839.9,546.9 851.1,527.6 
			873.3,527.6 884.5,546.9 873.3,566.2 		"/>
		<polygon fill="#2BB673" stroke="#21409A" stroke-width="2" stroke-miterlimit="10" points="584.4,604.8 573.2,585.5 584.4,566.2 
			606.6,566.2 617.8,585.5 606.6,604.8 		"/>
		<polygon fill="#2BB673" stroke="#21409A" stroke-width="2" stroke-miterlimit="10" points="751.9,585.5 740.8,566.2 751.9,546.9 
			774.2,546.9 785.3,566.2 774.2,585.5 		"/>
		<polygon fill="#2BB673" stroke="#21409A" stroke-width="2" stroke-miterlimit="10" points="617.7,585.5 606.5,566.2 617.7,546.9 
			639.9,546.9 651.1,566.2 639.9,585.5 		"/>
		<polygon fill="#2BB673" stroke="#21409A" stroke-width="2" stroke-miterlimit="10" points="783.9,566.2 772.7,546.9 783.9,527.6 
			806.1,527.6 817.3,546.9 806.1,566.2 		"/>
		<polygon fill="#2BB673" stroke="#21409A" stroke-width="2" stroke-miterlimit="10" points="518,682.1 506.8,662.8 518,643.5 
			540.2,643.5 551.4,662.8 540.2,682.1 		"/>
		<polygon fill="#7F3F98" stroke="#21409A" stroke-width="2" stroke-miterlimit="10" points="584.4,643.5 573.2,624.2 584.4,604.9 
			606.6,604.9 617.8,624.2 606.6,643.5 		"/>
		<polygon fill="#7F3F98" stroke="#21409A" stroke-width="2" stroke-miterlimit="10" points="618.4,624.1 607.2,604.8 618.4,585.5 
			640.7,585.5 651.8,604.8 640.7,624.1 		"/>
		<polygon fill="#7F3F98" stroke="#21409A" stroke-width="2" stroke-miterlimit="10" points="684.3,585.5 673.1,566.2 684.3,546.9 
			706.5,546.9 717.7,566.2 706.5,585.5 		"/>
		<polygon fill="#7F3F98" stroke="#21409A" stroke-width="2" stroke-miterlimit="10" points="650.5,682.1 639.4,662.8 650.5,643.5 
			672.8,643.5 683.9,662.8 672.8,682.1 		"/>
		<polygon fill="#7F3F98" stroke="#21409A" stroke-width="2" stroke-miterlimit="10" points="851.1,527.6 839.9,508.3 851.1,489 
			873.3,489 884.5,508.3 873.3,527.6 		"/>
		<polygon fill="#7F3F98" stroke="#21409A" stroke-width="2" stroke-miterlimit="10" points="684.3,662.8 673.1,643.5 684.3,624.2 
			706.5,624.2 717.7,643.5 706.5,662.8 		"/>
		<polygon fill="#049FDA" stroke="#21409A" stroke-width="2" stroke-miterlimit="10" points="617.2,701.3 606,682 617.2,662.7 
			639.5,662.7 650.6,682 639.5,701.3 		"/>
		<polygon fill="#7F3F98" stroke="#21409A" stroke-width="2" stroke-miterlimit="10" points="718.2,643.5 707,624.2 718.2,604.9 
			740.4,604.9 751.6,624.2 740.4,643.5 		"/>
		<polygon fill="#049FDA" stroke="#21409A" stroke-width="2" stroke-miterlimit="10" points="584.4,720.7 573.2,701.4 584.4,682.1 
			606.6,682.1 617.8,701.4 606.6,720.7 		"/>
		<polygon fill="#049FDA" stroke="#21409A" stroke-width="2" stroke-miterlimit="10" points="684.3,740 673.1,720.7 684.3,701.4 
			706.5,701.4 717.7,720.7 706.5,740 		"/>
		<polygon fill="#049FDA" stroke="#21409A" stroke-width="2" stroke-miterlimit="10" points="584.4,759.3 573.2,740 584.4,720.7 
			606.6,720.7 617.8,740 606.6,759.3 		"/>
		<polygon fill="#049FDA" stroke="#21409A" stroke-width="2" stroke-miterlimit="10" points="618.4,778.6 607.2,759.3 618.4,740 
			640.7,740 651.8,759.3 640.7,778.6 		"/>
		<polygon fill="#EC008C" stroke="#21409A" stroke-width="2" stroke-miterlimit="10" points="817.9,624.2 806.8,604.9 817.9,585.6 
			840.2,585.6 851.4,604.9 840.2,624.2 		"/>
		<polygon fill="#EC008C" stroke="#21409A" stroke-width="2" stroke-miterlimit="10" points="918.1,643.3 906.9,624 918.1,604.7 
			940.3,604.7 951.5,624 940.3,643.3 		"/>
	</g>
	<text transform="matrix(1 0 0 1 512.0243 535.0379)" font-family="'MVBoli'" font-size="14.4">Fall 2014</text>
	<polygon fill="#2BB673" stroke="#21409A" stroke-width="2" stroke-miterlimit="10" points="717.6,527.6 706.4,508.3 717.6,489 
		739.8,489 751,508.3 739.8,527.6 	"/>
	<polygon fill="#EC008C" stroke="#21409A" stroke-width="2" stroke-miterlimit="10" points="717.6,759.3 706.4,740 717.6,720.7 
		739.8,720.7 751,740 739.8,759.3 	"/>
	<polygon fill="#EC008C" stroke="#21409A" stroke-width="2" stroke-miterlimit="10" points="651,720.7 639.8,701.4 651,682.1 
		673.2,682.1 684.4,701.4 673.2,720.7 	"/>
	<polygon fill="#2BB673" stroke="#21409A" stroke-width="2" stroke-miterlimit="10" points="750.4,508.3 739.3,489 750.4,469.7 
		772.7,469.7 783.8,489 772.7,508.3 	"/>
	<text transform="matrix(1 0 0 1 221.9117 417.9207)" font-family="'MVBoli'" font-size="14.4">Summer 2014</text>
	<text transform="matrix(1 0 0 1 585.683 417.9208)" font-family="'MVBoli'" font-size="14.4">Summer 2013</text>
	<polygon fill="#049FDA" stroke="#21409A" stroke-width="2" stroke-miterlimit="10" points="695.6,450.5 684.2,431.4 695.2,411.9 
		717.5,411.7 728.8,430.9 717.9,450.3 	"/>
	<polygon fill="#EC008C" stroke="#21409A" stroke-width="2" stroke-miterlimit="10" points="730,431 718.9,411.7 730,392.4 
		752.3,392.4 763.4,411.7 752.3,431 	"/>
	<polygon fill="#EC008C" stroke="#21409A" stroke-width="2" stroke-miterlimit="10" points="188.4,450.4 177.3,431.1 188.4,411.8 
		210.7,411.8 221.8,431.1 210.7,450.4 	"/>
	<polygon fill="#2BB673" stroke="#21409A" stroke-width="2" stroke-miterlimit="10" points="295.6,250.2 284.5,230.9 295.6,211.6 
		317.9,211.6 329,230.9 317.9,250.2 	"/>
	<polygon fill="#EC008C" stroke="#21409A" stroke-width="2" stroke-miterlimit="10" points="328.4,269.5 317.2,250.2 328.4,230.9 
		350.6,230.9 361.8,250.2 350.6,269.5 	"/>
	<polygon fill="#EC008C" stroke="#21409A" stroke-width="2" stroke-miterlimit="10" points="162.6,134.4 151.4,115.1 162.6,95.8 
		184.9,95.8 196,115.1 184.9,134.4 	"/>
	<polygon fill="#2BB673" stroke="#21409A" stroke-width="2" stroke-miterlimit="10" points="651,643.4 639.8,624.1 651,604.8 
		673.2,604.8 684.4,624.1 673.2,643.4 	"/>
	<polygon fill="#EC008C" stroke="#21409A" stroke-width="2" stroke-miterlimit="10" points="918.1,604.7 906.9,585.4 918.1,566.1 
		940.3,566.1 951.5,585.4 940.3,604.7 	"/>
</g>
<text transform="matrix(1 0 0 1 496.8513 24)" font-family="'MVBoli'" font-size="14">Each color block represents one course offered during the stated semester</text>
</svg>
